<?xml version="1.0" encoding="UTF-8"?>
<svg xmlns="http://www.w3.org/2000/svg" viewBox="0 0 64 64" fill="none">
  <!-- Wi-Fi-style arcs + dot, generic enough to not look like any real brand. -->
  <path d="M32 12c10.2 0 19.5 3.9 26.6 10.3l-4 4.4A33.2 33.2 0 0 0 32 18.4c-8.7 0-16.6 3.4-22.6 9l-4-4.5C12.5 15.9 21.8 12 32 12z" fill="#2e90fa"/>
  <path d="M32 26c7 0 13.3 2.7 18.1 7.1l-4 4.4A19.5 19.5 0 0 0 32 32.4 19.5 19.5 0 0 0 17.9 37.6l-4-4.4C18.7 28.7 25 26 32 26z" fill="#2e90fa"/>
  <path d="M32 40c3.4 0 6.6 1.3 9 3.3L32 52l-9-8.6A14 14 0 0 1 32 40z" fill="#2e90fa"/>
</svg>
